<?xml version="1.0" encoding="UTF-8" standalone="no"?>
<!DOCTYPE svg PUBLIC "-//W3C//DTD SVG 1.1//EN" "http://www.w3.org/Graphics/SVG/1.1/DTD/svg11.dtd">
<svg width="100%" height="100%" viewBox="0 0 264 516" version="1.1" xmlns="http://www.w3.org/2000/svg" xmlns:xlink="http://www.w3.org/1999/xlink" xml:space="preserve" xmlns:serif="http://www.serif.com/" style="fill-rule:evenodd;clip-rule:evenodd;stroke-linejoin:round;stroke-miterlimit:2;">
    <path d="M199.299,381.098C199.923,376.564 198.145,367.373 198.6,362.834C201.333,335.736 210.874,312.429 222.28,256.493L230.458,295.327L219.664,301.276L215.567,317.157C215.567,317.157 220.815,317.74 221.514,319.142C222.565,321.243 218.537,328.048 218.537,328.048C218.537,328.048 239.695,337.756 246.312,335.024C252.064,332.649 256.654,317.933 259.677,300.357C263.438,278.494 264.767,252.207 262.883,239.748C262.304,235.919 254.244,230.686 254.353,226.816C255.516,185.963 257.055,133.132 238.51,110.334C230.203,100.125 209.982,97.385 193.574,82.903C183.816,74.289 183.344,42.297 181.85,15.105C181.257,4.34 148.304,-6.998 133.763,5.435C118.387,18.577 124.645,52.468 124.645,52.468C124.645,52.468 136.729,56.916 138.112,60.599C138.928,62.77 135.287,69.432 135.287,69.432C91.23,62.632 48.252,62.044 40.667,65.72C26.906,72.388 18.964,187.351 18.964,187.351L18.964,199.585C18.964,199.585 10.985,209.936 10.239,214.123C10.098,214.931 16.123,249.759 20.744,280.194C23.512,298.45 21.443,315.965 29.591,321.241C36.363,325.623 60.893,313.402 60.893,313.402C60.893,313.402 56.391,305.746 57.573,303.392C58.363,301.81 64.278,301.161 64.278,301.161L58.283,282.285L43.695,276.045C43.695,276.045 59.562,231.894 60.944,213.011C61.225,209.147 53.141,199.624 53.141,199.624L83.261,146.063C83.261,146.063 110.316,206.083 110.037,227.514C109.582,263.285 75.524,329.179 54.189,363.345C47.037,374.796 26.261,384.397 19.966,396.348C7.233,420.533 11.046,497.479 11.046,497.479C11.046,497.479 3.836,509.335 0,515.37L38.497,515.37L30.553,493.031C30.553,493.031 63.629,417.727 81.716,393.987C84.291,390.594 91.413,385.625 94.42,382.608C111.747,365.23 159.676,309.309 159.676,309.309C159.676,309.309 164.79,357.079 160.844,372.337C158.455,381.577 143.795,396.07 141.715,405.392C139.986,413.144 149.093,490.837 149.093,490.837C149.093,490.837 137.095,507.257 136.332,515.37L221.473,515.37L172.577,492.002C172.577,492.002 195.578,408.189 199.299,381.098" style="fill:rgb(213,213,213);fill-rule:nonzero;stroke:rgb(63,62,62);stroke-width:0.27px;"/>
    <path d="M157.558,211.65C157.558,211.65 165.302,164.296 165.792,148.249C166.157,136.374 161.094,100.96 161.094,100.96L152.542,83.352C152.542,83.352 159.472,82.534 164.794,83.352C169.735,84.112 174.175,86.87 174.175,86.87L164.116,100.455C164.116,100.455 178.001,136.658 180.765,149.247C184.401,165.805 189.76,216.685 189.76,216.685C189.76,216.685 184.939,223.96 183.11,226.216C180.495,229.439 171.749,238.32 171.749,238.32C171.749,238.32 167.17,227.211 165.277,223.688C163.583,220.539 157.558,211.65 157.558,211.65" style="fill:rgb(204,0,0);fill-rule:nonzero;"/>
</svg>
