<?xml version="1.0" encoding="UTF-8" standalone="no"?>
<!DOCTYPE svg PUBLIC "-//W3C//DTD SVG 1.1//EN" "http://www.w3.org/Graphics/SVG/1.1/DTD/svg11.dtd">
<svg width="100%" height="100%" viewBox="0 0 3000 735" version="1.1" xmlns="http://www.w3.org/2000/svg" xmlns:xlink="http://www.w3.org/1999/xlink" xml:space="preserve" xmlns:serif="http://www.serif.com/" style="fill-rule:evenodd;clip-rule:evenodd;stroke-linejoin:round;stroke-miterlimit:2;">
    <g>
        <path d="M949.504,178.082C911.342,146.543 855.654,130.778 782.383,130.778L589.441,130.778L589.441,734.798L717.521,734.798L717.521,519.976L772.467,519.976C847.385,519.976 905.162,502.765 945.779,468.319C986.415,433.897 1006.73,384.178 1006.73,319.171C1006.73,256.65 987.65,209.622 949.504,178.082ZM848.082,391.679C828.522,407.253 799.051,415.01 759.674,415.01L717.521,415.01L717.521,235.719L775.776,235.719C810.744,235.719 836.43,242.878 852.822,257.192C869.214,271.521 877.408,293.692 877.408,323.715C877.408,353.467 867.633,376.125 848.082,391.679Z" style="fill:white;fill-rule:nonzero;"/>
        <rect x="1066.8" y="130.778" width="128.086" height="604.02" style="fill:white;fill-rule:nonzero;"/>
        <path d="M2890.26,416.677C2890.26,449.175 2893.56,583.17 2893.56,583.17L2631.21,130.783L2469.68,130.783L2469.68,734.798L2584.12,734.798L2584.12,450.561C2584.12,416.124 2579.99,277.867 2579.99,277.867L2842.73,734.798L3005.52,734.798L3005.52,130.778L2890.26,130.778L2890.26,416.677Z" style="fill:white;fill-rule:nonzero;"/>
        <path d="M2196.14,128.298L1923.54,650.682L1923.54,130.778L1749.21,130.778L1597.58,592.664L1595.1,592.664L1452.16,130.778L1277.8,130.778L1277.8,734.798L1392.26,734.798L1392.26,453.854C1392.26,421.637 1388.12,260.917 1388.12,260.917L1533.54,734.798L1650.88,734.798L1806.63,261.751C1806.63,261.751 1805.19,384.585 1804.77,402.207C1804.36,419.85 1804.15,435.414 1804.15,448.909L1804.15,734.798L2024.66,734.798L2095.7,591.018L2271.53,591.018L2271.48,734.798L2394.2,734.798L2394.2,128.298L2196.14,128.298ZM2271.54,483.612L2147.35,483.612C2147.35,483.612 2257.95,252.673 2270.06,219.613L2271.53,219.412L2271.53,483.612L2271.54,483.612Z" style="fill:white;fill-rule:nonzero;"/>
    </g>
    <g>
        <path d="M231.205,734.207L230.865,734.207C234.701,728.171 241.911,716.315 241.911,716.315C241.911,716.315 238.098,639.369 250.831,615.184C257.126,603.233 277.903,593.632 285.054,582.181C306.389,548.015 340.448,482.121 340.903,446.35C341.182,424.92 314.127,364.899 314.127,364.899L284.007,418.461C284.007,418.461 292.091,427.984 291.81,431.848C290.428,450.731 274.561,494.882 274.561,494.882L289.15,501.122L295.144,519.998C295.144,519.998 289.23,520.646 288.44,522.228C287.257,524.583 291.759,532.238 291.759,532.238C291.759,532.238 267.229,544.46 260.457,540.077C252.308,534.801 254.378,517.286 251.61,499.03C246.989,468.596 240.963,433.768 241.105,432.96C241.851,428.773 249.83,418.422 249.83,418.422L249.83,406.188C249.83,406.188 257.772,291.225 271.533,284.557C279.118,280.881 322.095,281.469 366.153,288.269C366.153,288.269 369.793,281.607 368.978,279.436C367.594,275.753 355.51,271.305 355.51,271.305C355.51,271.305 349.252,237.414 364.628,224.272C379.169,211.839 412.122,223.177 412.715,233.942C414.21,261.135 414.681,293.127 424.44,301.74C440.848,316.223 461.069,318.963 469.376,329.172C487.921,351.969 486.382,404.8 485.219,445.653C485.11,449.524 493.17,454.757 493.749,458.586C495.633,471.045 494.304,497.331 490.543,519.194C487.521,536.77 482.93,551.486 477.178,553.861C470.562,556.593 449.404,546.885 449.404,546.885C449.404,546.885 453.432,540.08 452.381,537.979C451.682,536.577 446.434,535.994 446.434,535.994L450.532,520.113L461.326,514.165L453.148,475.33C441.741,531.267 432.2,554.573 429.467,581.672C429.012,586.211 430.79,595.402 430.166,599.936C426.445,627.027 403.444,710.841 403.442,710.838L452.338,734.206L451.393,734.206L452.34,734.32L529.625,734.32L529.625,130.32L314.673,130.32L-1.089,734.32L230.867,734.32L231.205,734.207ZM269.061,734.207L269.364,734.32L367.199,734.32L367.682,734.206L367.197,734.206C367.96,726.093 379.958,709.673 379.958,709.673C379.958,709.673 370.851,631.98 372.58,624.228C374.66,614.905 389.32,600.413 391.709,591.173C395.655,575.916 390.541,528.145 390.541,528.145C390.541,528.145 342.612,584.066 325.285,601.444C322.278,604.462 315.156,609.43 312.581,612.823C294.494,636.563 261.418,711.867 261.418,711.867L269.362,734.207L269.061,734.207Z" style="fill:white;fill-rule:nonzero;"/>
        <path d="M388.425,430.489C388.425,430.489 396.169,383.135 396.659,367.088C397.023,355.213 391.961,319.799 391.961,319.799L383.409,302.192C383.409,302.192 390.339,301.374 395.661,302.192C400.601,302.952 405.042,305.71 405.042,305.71L394.982,319.295C394.982,319.295 408.868,355.498 411.631,368.087C415.267,384.646 420.626,435.525 420.626,435.525C420.626,435.525 415.805,442.799 413.976,445.056C411.362,448.279 402.616,457.16 402.616,457.16C402.616,457.16 398.037,446.051 396.143,442.528C394.45,439.378 388.425,430.489 388.425,430.489Z" style="fill:white;fill-rule:nonzero;"/>
    </g>
</svg>
